# xmcd
#
# Track frame offsets: 
#        182
#        17235
#        30515
#        46455
#        59150
#        85802
#        97540
#        118107
#        135410
#        148580
#        163680
#        183495
#
# Disc length: 2590 seconds
#
# Revision: 2
# Processed by: cddbd v1.4PL0 Copyright (c) Steve Scherf et al.
# Submitted via: ExactAudioCopy v0.95a4
#
DISCID=9d0a1c0c
DTITLE=Memphis Slim, Tampa Red, Lonnie Johnson - Bawdy Blues (1956-196
DTITLE=1)
DYEAR=1991
DGENRE=Blues
TTITLE0=Memphis Slim - Sweet Root Man
TTITLE1=Tampa Red - Let Me Play With Your Poodle
TTITLE2=Victoria Spivey - I'm a Red Hot Mama
TTITLE3=Lonnie Johnson - Jelly Roll Baker
TTITLE4=Memphis Slim - Churning Man Blues
TTITLE5=Pink Anderson - Try Some Of That
TTITLE6=Memphis Slim - Steady Rollin' Blues
TTITLE7=Tampa Red - Jelly Whipping Blues
TTITLE8=Victoria Spivey  - That Man
TTITLE9=Memphis Willy B - Car Machine Blues
TTITLE10=Memphis Slim - If You See Kay
TTITLE11=Blind Willy McTell - Beedle Um Bum
EXTD=Bluesville OBCCD-544-2
EXTT0=
EXTT1=
EXTT2=With Victoria Spivey vocals and piano
EXTT3=
EXTT4=
EXTT5=
EXTT6=
EXTT7=
EXTT8=
EXTT9=
EXTT10=
EXTT11=12 string guitar
PLAYORDER=
